/* XPM */
static char *_2e313cb76704f3e9df3a4ce7f95511e_1[] = {
/* columns rows colors chars-per-pixel */
"17 18 58 1 ",
"  c None",
". c #037FFB",
"X c #007FFD",
"o c #017FFD",
"O c #027FFC",
"+ c #037EFD",
"@ c #027FFD",
"# c #007FFE",
"$ c #017FFE",
"% c #007FFF",
"& c #017FFF",
"* c #027FFE",
"= c #047FFC",
"- c #0080FE",
"; c #0180FE",
": c #1782FB",
"> c #1486F9",
", c #1B82FC",
"< c #1B83FC",
"1 c #1C85FC",
"2 c #2185FF",
"3 c #2585FF",
"4 c #2D87FE",
"5 c #2D87FF",
"6 c #418BFD",
"7 c #428CFD",
"8 c #458DFD",
"9 c #468CFD",
"0 c #498FFD",
"q c #4B8FFE",
"w c #4A8FFF",
"e c #4D91FE",
"r c #629AFD",
"t c #629BFE",
"y c #77A3FC",
"u c #76A4FE",
"i c #7CA4FB",
"p c #79A5FD",
"a c #82A9FB",
"s c #84AAF9",
"d c #A1BAFB",
"f c #AAC0FD",
"g c #AAC0FE",
"h c #AAC4FC",
"j c #B1C7FC",
"k c #C9D7FF",
"l c #D0DBFA",
"z c #D6E0F6",
"x c #D6E2FD",
"c c #D9E2F8",
"v c #EFF3FD",
"b c #F0F4FD",
"n c #F9F9F9",
"m c gray98",
"M c #FAFCFD",
"N c #FCFEFF",
"B c #FEFEFE",
"V c white",
/* pixels */
"      8r1rq      ",
"    7%%%%%%%8    ",
"   2%%%%%%%%%5   ",
"  3%%%%%%%%%%%5  ",
" %%%%%qgggq%%%%< ",
" %%%%%sVVVi%%%%% ",
"%%%%%%sVVVi%%%%%:",
"%%%%%%sVVVi%%%%%<",
"-%%%ykxVVVlku%%%%",
"%%%%>cnnnnnz.%%%-",
"%%%%%ebVVVv6%%%%=",
"-%%%%%aVVMp%%%%%%",
" %%%%%%jVh%%%%%% ",
" %%%%%%%d%%%%%%% ",
"  %%%%%%%%%%%%%  ",
"   %%%%%%%%%%%   ",
"    %%%%%%%%%    ",
"      %%%%%      "
};
