/* XPM */
static char *a852087ebe224d2fb5955aa615cf0ef0_1[] = {
/* columns rows colors chars-per-pixel */
"47 45 130 2 ",
"   c None",
".  c #0185FF",
"X  c #0B86FE",
"o  c #1486FE",
"O  c #1B87FE",
"+  c #1E88FE",
"@  c #2287FC",
"#  c #2488FE",
"$  c #2C89FD",
"%  c #3D8BF6",
"&  c #338BFC",
"*  c #3B8DFD",
"=  c #418CF7",
"-  c #4B8FF7",
";  c #428EFA",
":  c #4C90F7",
">  c #4690FD",
",  c #4C92FD",
"<  c #5192F7",
"1  c #5C97F7",
"2  c #5294FB",
"3  c #5B97FA",
"4  c #5E99FD",
"5  c #659BF7",
"6  c #6B9DF7",
"7  c #639CFE",
"8  c #699EFC",
"9  c #6EA1FF",
"0  c #73A3FF",
"q  c #78A6FF",
"w  c #7EA9FF",
"e  c #82ABFF",
"r  c #8BAFFE",
"t  c #89AFFE",
"y  c #8EB2FF",
"u  c #93B5FF",
"i  c #97B7FF",
"p  c #90B3FF",
"a  c #9BB9FF",
"s  c #9CBAFF",
"d  c #9FBCFF",
"f  c #9EBCFE",
"g  c #A0BCFF",
"h  c #A1BDFF",
"j  c #A2BDFF",
"k  c #A3BFFE",
"l  c #A2BEFF",
"z  c #A4BFFE",
"x  c #A5C0FF",
"c  c #A5C0FE",
"v  c #A8C1FF",
"b  c #A9C2FF",
"n  c #ABC4FF",
"m  c #ADC4FF",
"M  c #ADC5FF",
"N  c #AFC6FF",
"B  c #AAC3FE",
"V  c #B0C6FF",
"C  c #B3C9FE",
"Z  c #B2C8FF",
"A  c #B3C8FF",
"S  c #B3C9FF",
"D  c #B4C8FE",
"F  c #B4C9FE",
"G  c #B4C9FF",
"H  c #B7CBFF",
"J  c #BACEFF",
"K  c #BDCFFE",
"L  c #BCCFFF",
"P  c #BBCEFF",
"I  c #BED0FE",
"U  c #C1D3FF",
"Y  c #C8D7FF",
"T  c #CAD8FE",
"R  c #CBD8FE",
"E  c #CDD9FE",
"W  c #CDDAFE",
"Q  c #CDDBFF",
"!  c #CEDBFE",
"~  c #D0DDFF",
"^  c #D1DDFF",
"/  c #D3DEFF",
"(  c #D1DEFE",
")  c #D5E0FE",
"_  c #D5E0FF",
"`  c #D4E0FE",
"'  c #D8E3FF",
"]  c #D9E3FF",
"[  c #DDE5FF",
"{  c #DDE6FF",
"}  c #DDE7FF",
"|  c #DEE6FF",
" . c #DBE5FE",
".. c #E1E8FE",
"X. c #E0E8FF",
"o. c #E1E8FF",
"O. c #E1E9FF",
"+. c #E2E9FE",
"@. c #E3EAFE",
"#. c #E3EAFF",
"$. c #E4EAFF",
"%. c #E4EBFF",
"&. c #E7EDFF",
"*. c #E3EAFE",
"=. c #EBF0FE",
"-. c #EDF1FE",
";. c #EDF1FF",
":. c #EEF2FE",
">. c #EFF3FE",
",. c #EEF2FF",
"<. c #EFF3FF",
"1. c #EEF2FF",
"2. c #F0F4FF",
"3. c #F1F4FF",
"4. c #F1F5FF",
"5. c #F2F5FF",
"6. c #F5F7FE",
"7. c #F2F5FE",
"8. c #F6F8FF",
"9. c #F7F9FF",
"0. c #F6F8FE",
"q. c #F8F9FF",
"w. c #F9FAFF",
"e. c #F9FBFF",
"r. c #FAFBFF",
"t. c #FBFCFE",
"y. c #FAFCFF",
"u. c #FBFCFF",
"i. c #FCFCFF",
"p. c #FEFEFE",
/* pixels */
"                                  6 4 > $ o X X X o # * 2 5                                   ",
"                              3 2 , , & + X . . . X O $ * , 3 3                               ",
"                        5 2 ; & $ $ # O X . . . . . X o O # $ * 3 6                           ",
"                      , > * $ O X . . . . . . . . . . . . . o $ * 2 3 3                       ",
"                  3 ; & # O o . . . . . . . . . . . . . . . . o O $ & = 2                     ",
"                2 * $ O X . . . X O $ & * * * * * & $ O X . . . . X O $ * , 1                 ",
"              2 * # o X X X . X # , 8 w t t t t t w 8 > $ X X . . . X o O & , 1               ",
"            , * # # * , , , , , 7 e l K T Q Q Q T I l w 7 2 , , , , * # X O $ = 1             ",
"          2 * # o ; q i d d d d b K ^ %.<.<.<.<.<.%.^ J b l d d s p q , o . o $ ;             ",
"        3 ; # X o 3 l Q ] ] ] ] | &.5.e.u.u.u.u.e.9.5.&.| ] ] ] _ Y c 8 # . . O $ ;           ",
"      3 > $ o . o 7 G #.<.5.5.5.5.6.e.u.u.i.u.u.u.u.e.9.5.5.5.<.=.| G 0 # . . X O & ,         ",
"      , $ O . . o 4 b _ #.#.#.#.#.#.#.%.%.%.%.%.%.%.%.#.#.#.#.#.| ^ n 8 # . . . o # % 2       ",
"    3 ; @ X . . X > w l V A G G G G G G G G G G G G G G G G G A N d e , o . . . . o $ ;       ",
"    > & o . . . . # , q a N A A A A A A A A A A A A A A A A A N s q , $ X . . . . . O * <     ",
"  3 & O X . . . . X & q J  .#.#.#.#.#.#.#.#.#.#.#.#.#.#.#.#.| _ K e * X . . . . . . o & =     ",
"  2 $ X . . . . . . $ e Q 5.e.e.e.e.e.e.e.e.e.e.e.e.e.e.e.e.9.<.! y * . . . . . . . X # $     ",
"6 , # . . . . . . . $ e ^ 9.i.i.i.i.i.i.i.i.i.i.i.i.i.i.i.i.i.5.^ y * . . . . . . . . X O     ",
"3 > # . . . . . . . $ e ^ 9.i.i.i.i.i.i.i.i.i.i.i.i.i.i.i.i.i.5.^ p * . . . . . . . . . X #   ",
", * # . . . . . . . $ e ^ e.i.i.i.i.i.i.i.i.i.i.i.i.i.i.i.i.i.5.^ p * . . . . . . . . . . o   ",
"> * O . . . . . . . $ e ^ 9.i.i.i.i.i.i.i.i.i.i.i.i.i.i.i.i.i.5.^ p * . . . . . . . . . . X O ",
"* $ O . . . . . . . $ e ^ 9.i.i.i.i.i.i.i.i.i.i.i.i.i.i.i.i.i.5.^ p * . . . . . . . . . X O # ",
"# O X . . . . . . . $ e ^ 9.i.i.i.i.i.i.i.i.i.i.i.i.i.i.i.i.i.5.^ p * . . . . . . . . . o # & ",
"X . . . . . . . . . $ e ^ 9.i.i.i.i.i.i.i.i.i.i.i.i.i.i.i.i.i.5.^ p * . . . . . . . . . o $ * ",
"X X . . . . . . . . $ e ^ 9.i.i.i.i.i.i.i.i.i.i.i.i.i.i.i.i.i.5.^ p * . . . . . . . . . o $ * ",
"O o . . . . . . . . $ e ^ 9.i.i.i.i.i.i.i.i.i.i.i.i.i.i.i.i.i.5.^ p * . . . . . . . . . X O $ ",
"+ o . . . . . . . . $ e ^ 9.i.i.i.i.i.i.i.i.i.i.i.i.i.i.i.i.i.5.^ p * . . . . . . . . . . X   ",
"+ o . . . . . . . . $ e ^ 9.i.i.i.i.i.i.i.i.i.i.i.i.i.i.i.i.i.5.^ p * . . . . . . . . . . .   ",
"& # o . . . . . . . $ e ^ 9.i.i.i.i.i.i.i.i.i.i.i.i.i.i.i.i.i.5.^ p * . . . . . . . . . . .   ",
", & o . . . . . . . $ e ^ e.i.i.i.i.i.i.i.i.i.i.i.i.i.i.i.i.i.5.^ p * . . . . . . . . . .     ",
"  $ o . . . . . . . $ e ^ 9.i.i.i.i.i.i.i.i.i.i.i.i.i.i.i.i.i.5.^ p * . . . . . . . . . .     ",
"    O X . . . . . . $ e ^ 9.i.i.i.i.i.i.i.i.i.i.i.i.i.i.i.i.i.5.^ p * . . . . . . . . . .     ",
"    $ @ X . . . . . $ e ^ 9.i.i.i.i.i.i.i.i.i.i.i.i.i.i.i.i.i.5.^ p * . . . . . . . . .       ",
"    ; $ o . . . . . $ e ^ 9.i.i.i.i.i.i.i.i.i.i.i.i.i.i.i.i.i.5.^ p * . . . . . . . . .       ",
"      % @ X . . . . $ e ^ 9.i.i.i.i.i.i.i.i.i.i.i.i.i.i.i.i.i.5.` p * . . . . . . . .         ",
"      : * @ X . . . $ e ^ 9.i.i.i.i.i.i.i.i.i.i.i.i.i.i.i.i.i.5.^ y * . . . . . . .           ",
"        - & O X . . $ e Q 6.i.i.i.i.i.i.i.i.i.i.i.i.i.i.i.i.u.5.! y * . . . . . . .           ",
"          = $ O X . $ q U =.e.i.i.i.i.i.i.i.i.i.i.i.i.i.i.i.9.&.U e & . . . . . .             ",
"            = $ O X # 8 c ^ &.5.5.5.5.5.5.5.5.5.5.5.5.5.5.<.&.^ b 0 $ . . . . .               ",
"              = $ O O > q l U ! ^ _ _ _ _ _ _ _ _ _ _ _ ^ ! U z w , O . . . .                 ",
"                % $ @ $ > 9 y d l c c c c c c c c c c c l s y 9 > # X . . .                   ",
"                  = & @ $ * 2 4 7 7 7 7 7 7 7 7 7 7 7 7 7 4 2 * # X . . X                     ",
"                      & $ $ # + + + O + + # + + + + + O O O O o . . .                         ",
"                        % & O o X o o o . . . . . . . . . . . . .                             ",
"                              @ @ $ $ @ o . . . . . . . . . .                                 ",
"                                  % % $ O X . . . . . X .                                     "
};
