/* XPM */
static char *_38671db14074261975531afcaa19120_1[] = {
/* columns rows colors chars-per-pixel */
"11 12 59 1 ",
"  c None",
". c #1B8AC1",
"X c #198AC2",
"o c #198BC2",
"O c #198AC3",
"+ c #1A8AC2",
"@ c #1C89C0",
"# c #1E8BC1",
"$ c #1C8AC2",
"% c #208AC0",
"& c #208BC0",
"* c #2C8DC2",
"= c #2C8EC3",
"- c #2D8EC3",
"; c #2E8EC2",
": c #2E8FC4",
"> c #308FC4",
", c #3690C4",
"< c #3690C5",
"1 c #3991C5",
"2 c #3892C4",
"3 c #3A92C4",
"4 c #4193C4",
"5 c #4193C5",
"6 c #4393C5",
"7 c #4394C5",
"8 c #4494C5",
"9 c #4C96C6",
"0 c #4E98C7",
"q c #4E99C7",
"w c #4C98C8",
"e c #4D99C8",
"r c #5099C7",
"t c #509AC8",
"y c #519AC8",
"u c #549CC9",
"i c #569CCA",
"p c #579CCA",
"a c #64A4CC",
"s c #68A2CB",
"d c #68A3CC",
"f c #6BA6CF",
"g c #71A6CD",
"h c #72A6CD",
"j c #70A7CE",
"k c #99BEDA",
"l c #C2D6E5",
"z c #DCE8F0",
"x c #DEE9F0",
"c c #E4EEF2",
"v c #E7F0F3",
"b c #E9F0F4",
"n c #EBF2F5",
"m c #EDF3F6",
"M c #EEF4F6",
"N c #F1F6F8",
"B c #F5F9FA",
"V c #F8FAFB",
"C c #FCFEFD",
/* pixels */
"   ai3ti   ",
"  4XX$XX,  ",
" 7XXXc=XX= ",
" XX$zBNrXX ",
"qXXfC3dXXX=",
"eXX:nzhXXX&",
"eXXX4lVsXX&",
"qXX$hXnkXX=",
" XXhBMm9XX ",
" 8XX3v>XX= ",
"  4XX$XX,  ",
"   ai3ti   "
};
