/* XPM */
static char *_4228d7c23f24a1cb1b1e96918a39fae_1[] = {
/* columns rows colors chars-per-pixel */
"28 29 127 2 ",
"   c None",
".  c #0084FE",
"X  c #0085FE",
"o  c #0084FF",
"O  c #0085FF",
"+  c #0185FF",
"@  c #0685FD",
"#  c #0485FE",
"$  c #0585FE",
"%  c #0985FD",
"&  c #0B85FD",
"*  c #0885FE",
"=  c #1386FD",
"-  c #1A87FD",
";  c #1F86FC",
":  c #1F88FE",
">  c #2588FC",
",  c #2888FB",
"<  c #3B8AF5",
"1  c #3E8CF8",
"2  c #3C8DFB",
"3  c #3A8DFC",
"4  c #3D8EFF",
"5  c #548EED",
"6  c #568FEC",
"7  c #578FED",
"8  c #5690EF",
"9  c #5691EF",
"0  c #5C90E9",
"q  c #5E93ED",
"w  c #438BF3",
"e  c #458CF3",
"r  c #438EF7",
"t  c #448DF6",
"y  c #458EF6",
"u  c #468EF7",
"i  c #4A8DF1",
"p  c #4A8DF2",
"a  c #408FFB",
"s  c #438FFA",
"d  c #428EFB",
"f  c #458FF9",
"g  c #408FFC",
"h  c #458FFC",
"j  c #518DF0",
"k  c #528DF0",
"l  c #4792F8",
"z  c #5992F0",
"x  c #5891F2",
"c  c #5A92F2",
"v  c #5C93F3",
"b  c #5A94F3",
"n  c #5B94F5",
"m  c #5B95F5",
"M  c #5D96F6",
"N  c #5C98F7",
"B  c #5194F9",
"V  c #5296F8",
"C  c #5194FA",
"Z  c #5495F9",
"A  c #5496F8",
"S  c #5696F9",
"D  c #5997F9",
"F  c #5A97F8",
"G  c #5C96FA",
"H  c #5D96FA",
"J  c #5D9AF8",
"K  c #6392E3",
"L  c #6694E4",
"P  c #6093EA",
"I  c #6097F6",
"U  c #6598F0",
"Y  c #679AF3",
"T  c #6198F7",
"R  c #649BF8",
"E  c #619BFE",
"W  c #659EFF",
"Q  c #679EFE",
"!  c #699FFE",
"~  c #6EA2FF",
"^  c #6FA2FF",
"/  c #6FA3FF",
"(  c #71A4FF",
")  c #7AA8FE",
"_  c #7AA8FF",
"`  c #81ABFE",
"'  c #83ABFE",
"]  c #85ADFF",
"[  c #87AEFF",
"{  c #89B0FF",
"}  c #8AB0FF",
"|  c #90B4FE",
" . c #90B4FF",
".. c #96B8FF",
"X. c #99B9FE",
"o. c #9ABAFE",
"O. c #A2BEFF",
"+. c #A4C0FE",
"@. c #A7C1FE",
"#. c #A7C2FF",
"$. c #A9C2FE",
"%. c #AAC3FF",
"&. c #ABC4FF",
"*. c #AFC7FF",
"=. c #AFC8FE",
"-. c #B9CEFE",
";. c #CFDDFF",
":. c #D0DEFF",
">. c #E2E9FE",
",. c #EAF0FE",
"<. c #F1F5FE",
"1. c #F0F4FF",
"2. c #F2F6FE",
"3. c #F3F7FE",
"4. c #F3F6FF",
"5. c #F5F8FF",
"6. c #F7FAFF",
"7. c #F9FBFE",
"8. c #FAFBFE",
"9. c #FAFBFF",
"0. c #FBFCFF",
"q. c #FCFDFE",
"w. c #FDFDFE",
"e. c #FDFEFF",
"r. c #FEFEFE",
"t. c #FEFEFF",
"y. c white",
/* pixels */
"                    J S H S C H S N                     ",
"                C . . . . . . . . . . C                 ",
"            D . . . . . . . . . . . . . . N             ",
"          3 . . . . . . . . . . . . . . . . 1           ",
"        h . . . . . . . . . . . . . . . . . . a         ",
"      g . . . . . . . . . . . . . . . . . . . . f       ",
"    R . . . . . . . . . . . . . . . *.O.. . . . . U     ",
"    * . . . . . . . . . . . . . . -.r.r.%.. . . . =     ",
"  D . . . . . . . . . . . . . . 4 4.r.r.r.#.. . . . n   ",
"  : . . . . . . . . . . . . . #._ E 4.r.r.>.. . . . >   ",
"  . . . . . . . . . . . . . #.r.5./ Q 4.4.! . . . . .   ",
"D . . . . . . . . . . . . O.r.r.r.4.Q / ( . . . . . . b ",
"a . . . . . . . . . . . X.r.r.r.r.r.,.$ . . . . . . . r ",
"T . . . . . . . . . . | r.r.r.r.r.9.` . . . . . . . . v ",
"l . . . . . . . . . } 0.r.r.r.r.9.] . . . . . . . . . z ",
"I . . . . . . . . ] 9.r.r.r.r.0.} . . . . . . . . . . z ",
"a . . . . . . . ` 9.r.r.r.r.r.| . . . . . . . . . . . u ",
"M . . . . . . _ 5.r.r.r.r.r.X.. . . . . . . . . . . . z ",
"  . . . . . / 5.r.r.r.r.r.O.. . . . . . . . . . . . .   ",
"  > . . . . ;.r.r.r.r.r.#.. . . . . . . . . . . . . ,   ",
"  n . . . . :.r.r.r.r.&.. . . . . . . . . . . . . . 8   ",
"    - . . . :.r.r.r.=.. . . . . . . . . . . . . . ;     ",
"    U . . . } %.%.... . . . . . . . . . . . . . . P     ",
"      u . . . . . . . . . . . . . . . . . . . . e       ",
"        1 . . . . . . . . . . . . . . . . . . <         ",
"          u . . . . . . . . . . . . . . . . w           ",
"            q $ . . . . . . . . . . . . $ 0             ",
"                8 * . . . . . . . . * 7                 ",
"                    L 7 p k k p 7 K                     "
};
