/* XPM */
static char *_b7e05d0b6f64974a0967173ef8778510TUW5PoiFA8sye9K[] = {
/* columns rows colors chars-per-pixel */
"30 30 17 1 ",
"  c None",
". c #2196F3",
"X c #429CF3",
"o c #65A7F4",
"O c #66A7F4",
"+ c #67A8F4",
"@ c #68A8F5",
"# c #69A8F5",
"$ c #7FB2F5",
"% c #93BBF6",
"& c #95BDF7",
"* c #C2D7FA",
"= c #C4D7FA",
"- c #CCDDFA",
"; c #E2EBFC",
": c #E3EBFC",
"> c white",
/* pixels */
"                              ",
"                              ",
"           ........           ",
"         ............         ",
"       ................       ",
"      ..................      ",
"     ....................     ",
"    ......................    ",
"    ..........@@..........    ",
"   ..........%>>&..........   ",
"   ..........*>>=..........   ",
"  ...........o::+...........  ",
"  ..........................  ",
"  ...........X$$X...........  ",
"  ...........$>>$...........  ",
"  ...........$>>$...........  ",
"  ...........%>>$...........  ",
"  ...........$>>$...........  ",
"  ...........$>>$...........  ",
"   ..........$>>$..........   ",
"   ..........o--o..........   ",
"    ......................    ",
"    ......................    ",
"     ....................     ",
"      ..................      ",
"       ................       ",
"         ............         ",
"           ........           ",
"                              ",
"                              "
};
