/* XPM */
static char *ec258cfea88c467fe86cb2a132098737bZFPHms73hteloGf[] = {
/* columns rows colors chars-per-pixel */
"25 25 69 1 ",
"  c None",
". c #3A9FD0",
"X c #39A0D0",
"o c #3AA0D2",
"O c #3AA1D2",
"+ c #3AA1D3",
"@ c #3AA2D5",
"# c #3AA3D5",
"$ c #3AA4D7",
"% c #3AA4D8",
"& c #3AA5D8",
"* c #3AA5D9",
"= c #3BA5D9",
"- c #3BA6D9",
"; c #3BA6DA",
": c #3CA6DA",
"> c #3CA7DB",
", c #3FA7DA",
"< c #3DA8DB",
"1 c #3DA8DC",
"2 c #3EA9DC",
"3 c #3EA9DD",
"4 c #3FAADE",
"5 c #41A6D7",
"6 c #43A9DA",
"7 c #40A8DC",
"8 c #41A9DC",
"9 c #40AADE",
"0 c #41AADE",
"q c #40ABDF",
"w c #41ABDF",
"e c #42ABDF",
"r c #44AADC",
"t c #46ACDE",
"y c #41ACE0",
"u c #42ACE0",
"i c #42ADE1",
"p c #43ADE1",
"a c #43AEE2",
"s c #44ADE1",
"d c #45ADE1",
"f c #47ADE0",
"g c #45AEE1",
"h c #44AEE2",
"j c #45AEE2",
"k c #44AFE3",
"l c #45AFE3",
"z c #46AFE3",
"x c #46B0E4",
"c c #47B1E5",
"v c #49B0E2",
"b c #48B1E5",
"n c #4AB2E4",
"m c #48B2E6",
"M c #49B2E6",
"N c #49B3E7",
"B c #4AB3E7",
"V c #4CB2E5",
"C c #4DB3E5",
"Z c #4AB4E8",
"A c #4BB4E8",
"S c #4BB5E9",
"D c #4CB5E9",
"F c #4CB6EA",
"G c #4DB6EA",
"H c #4DB7EB",
"J c #4EB7EB",
"K c #4EB8EC",
"L c #4FB8EC",
/* pixels */
"           L             ",
"         LLC             ",
"       LLLF              ",
"      LFFFB              ",
"    LFFFFA               ",
"   FFFFFAAAABB           ",
" FFFFFBFAAABBBBcc        ",
" FFFFFBANAcccclcllc      ",
" BABABcBcNBcclclaalaa    ",
"  vBBBcBccllllllaaaeea   ",
"   lccBlxlaltlaaaaa1ea1  ",
"    tcllxa    57eeaa11e  ",
"     tllal       e11a111 ",
"      6aaa        611111 ",
"        ea         11>1= ",
"         e         =1=== ",
"                   ===== ",
"                   ===** ",
"                   =*=*@ ",
"                   =*==  ",
"                  ==*=   ",
"                 ===@    ",
"                ===X     ",
"              ==$X       ",
"            XXX          "
};
